<svg width="270" height="268" viewBox="0 0 270 268" fill="none" xmlns="http://www.w3.org/2000/svg">
<g clip-path="url(#clip0)">
<path d="M45.1459 95.1193C45.1459 88.2157 50.7423 82.6193 57.6459 82.6193H295.146V107.619H57.6459C50.7423 107.619 45.1459 102.023 45.1459 95.1193V95.1193Z" fill="#F0D10A"/>
<path d="M85.1459 134.119C85.1459 127.216 90.7423 121.619 97.6459 121.619H295.146V146.619H97.6459C90.7423 146.619 85.1459 141.023 85.1459 134.119V134.119Z" fill="#DC1E1E"/>
<path d="M55.1459 173.119C55.1459 166.216 60.7423 160.619 67.6459 160.619H295.146V185.619H67.6459C60.7423 185.619 55.1459 180.023 55.1459 173.119V173.119Z" fill="#F0D10A"/>
</g>
<defs>
<clipPath id="clip0">
<rect width="200" height="180" fill="white" transform="translate(116.246 0.777252) rotate(40)"/>
</clipPath>
</defs>
</svg>