<svg width="476" height="104" viewBox="0 0 476 104" fill="none" xmlns="http://www.w3.org/2000/svg">
<path d="M420.831 78.02H25.6986C18.6854 78.02 13.0053 83.6187 13.0118 90.525C13.0184 97.4313 18.709 103.03 25.7223 103.03H420.855C427.868 103.03 433.548 97.4313 433.542 90.525C433.535 83.6187 427.845 78.02 420.831 78.02Z" fill="#F0D10A"/>
<path d="M462.831 39.01H67.6986C60.6854 39.01 55.0053 44.6087 55.0118 51.515C55.0184 58.4213 60.709 64.02 67.7223 64.02H462.855C469.868 64.02 475.548 58.4213 475.542 51.515C475.535 44.6087 469.845 39.01 462.831 39.01Z" fill="#DC1E1E"/>
<path d="M407.831 0H12.6986C5.68535 0 0.00581605 5.59868 0.0129905 12.505C0.020165 19.4113 5.71133 25.01 12.7246 25.01H407.857C414.871 25.01 420.55 19.4113 420.543 12.505C420.536 5.59868 414.845 0 407.831 0Z" fill="#F0D10A"/>
</svg>
