<svg width="476" height="104" viewBox="0 0 476 104" fill="none" xmlns="http://www.w3.org/2000/svg">
<path d="M12.7017 81H407.835C413.235 81 417.538 85.2988 417.543 90.505C417.548 95.7112 413.254 100.01 407.854 100.01H12.7215C7.32146 100.01 3.0184 95.7112 3.01299 90.505C3.00758 85.2988 7.30171 81 12.7017 81Z" stroke="#F0D10A" stroke-width="6"/>
<path d="M67.7014 42.01H462.834C468.234 42.01 472.537 46.3088 472.542 51.515C472.547 56.7212 468.252 61.02 462.852 61.02H67.7194C62.3194 61.02 58.0168 56.7212 58.0118 51.515C58.0069 46.3088 62.3014 42.01 67.7014 42.01Z" stroke="#DC1E1E" stroke-width="6"/>
<path d="M25.7014 3H420.834C426.234 3 430.537 7.29881 430.542 12.505C430.547 17.7112 426.252 22.01 420.852 22.01H25.7194C20.3194 22.01 16.0168 17.7112 16.0118 12.505C16.0069 7.29881 20.3014 3 25.7014 3Z" stroke="#F0D10A" stroke-width="6"/>
</svg>